<?xml version="1.0" encoding="utf-8"?>
<!-- Generator: Adobe Illustrator 27.6.1, SVG Export Plug-In . SVG Version: 6.00 Build 0)  -->
<svg version="1.1" id="Слой_1" xmlns="http://www.w3.org/2000/svg" xmlns:xlink="http://www.w3.org/1999/xlink" x="0px" y="0px"
	 viewBox="0 0 50 50" style="enable-background:new 0 0 50 50;" xml:space="preserve">
<style type="text/css">
	.st0{fill:#4F46E5;}
</style>
<g id="Layer_2">
	<path class="st0" d="M42.3,6.8L26.9,21.1l-1.3-1.3L40.6,5L42.3,6.8z"/>
	<path class="st0" d="M26.9,21.1l-0.1,3l-6.4,5.6L20.4,34c0,0.5-0.2,1-0.6,1.4c-1.5,1.7-5.6,6.6-6,9.6c0,0-6.3-4.8-6.2-6.8l9.3-8.1
		l0.3-2l8.4-8.3L26.9,21.1z"/>
	<g>
		<path class="st0" d="M23.8,26.8c0.8,1.2,0.3,3.3-1.3,4.9c-0.6,0.6-1.3,1.1-2.1,1.4l0-0.9c0.6-0.2,1.1-0.6,1.5-1
			c1.2-1.2,1.6-2.7,1-3.5L23.8,26.8z"/>
	</g>
</g>
<rect x="20.8" y="22.8" transform="matrix(0.7071 -0.7071 0.7071 0.7071 -10.4184 21.9109)" class="st0" width="0.8" height="1.4"/>
<rect x="39.5" y="5.2" transform="matrix(0.7071 -0.7071 0.7071 0.7071 7.5472 29.9675)" class="st0" width="0.8" height="1.4"/>
</svg>
